#include "hUGEDriver.h"
#include <stddef.h>

static const unsigned char order_cnt = 4;

static const unsigned char P1[] = {
    DN(E_4,9,0x821),
    DN(___,0,0x000),
    DN(E_5,9,0x000),
    DN(___,0,0x000),
    DN(E_4,9,0x000),
    DN(___,0,0x000),
    DN(E_5,9,0x000),
    DN(___,0,0x000),
    DN(E_4,9,0x000),
    DN(___,0,0x000),
    DN(D_5,9,0x000),
    DN(___,0,0x000),
    DN(E_4,9,0x000),
    DN(___,0,0x000),
    DN(D_5,9,0x000),
    DN(___,0,0x000),
    DN(E_4,9,0x000),
    DN(___,0,0x000),
    DN(C_5,9,0x000),
    DN(___,0,0x000),
    DN(E_4,9,0x000),
    DN(___,0,0x000),
    DN(C_5,9,0x000),
    DN(___,0,0x000),
    DN(A_4,9,0x000),
    DN(___,0,0x000),
    DN(C_5,9,0x000),
    DN(___,0,0x000),
    DN(A_4,9,0x000),
    DN(___,0,0x000),
    DN(E_5,9,0x000),
    DN(___,0,0x000),
    DN(F_5,9,0x000),
    DN(___,0,0x000),
    DN(B_5,9,0x000),
    DN(___,0,0x000),
    DN(C_6,9,0x000),
    DN(___,0,0x000),
    DN(E_5,9,0x000),
    DN(___,0,0x000),
    DN(F_5,9,0x000),
    DN(___,0,0x000),
    DN(G_5,9,0x000),
    DN(___,0,0x000),
    DN(A_5,9,0x000),
    DN(___,0,0x000),
    DN(E_5,9,0x000),
    DN(___,0,0x000),
    DN(F_5,9,0x000),
    DN(___,0,0x000),
    DN(G_5,9,0x000),
    DN(___,0,0x000),
    DN(A_5,9,0x000),
    DN(___,0,0x000),
    DN(E_5,9,0x000),
    DN(___,0,0x000),
    DN(F_5,9,0x000),
    DN(___,0,0x000),
    DN(C_6,9,0x000),
    DN(___,0,0x000),
    DN(D_6,9,0x000),
    DN(___,0,0x000),
    DN(E_5,9,0x000),
    DN(___,0,0x000),
};
static const unsigned char P2[] = {
    DN(E_4,6,0x000),
    DN(___,0,0x000),
    DN(E_5,6,0x000),
    DN(___,0,0x000),
    DN(E_4,6,0x000),
    DN(___,0,0x000),
    DN(E_5,6,0x000),
    DN(___,0,0x000),
    DN(E_4,6,0x000),
    DN(___,0,0x000),
    DN(D_5,6,0x000),
    DN(___,0,0x000),
    DN(E_4,6,0x000),
    DN(___,0,0x000),
    DN(D_5,6,0x000),
    DN(___,0,0x000),
    DN(E_4,6,0x000),
    DN(___,0,0x000),
    DN(C_5,6,0x000),
    DN(___,0,0x000),
    DN(E_4,6,0x000),
    DN(___,0,0x000),
    DN(C_5,6,0x000),
    DN(___,0,0x000),
    DN(A_4,6,0x000),
    DN(___,0,0x000),
    DN(C_5,6,0x000),
    DN(___,0,0x000),
    DN(A_4,6,0x000),
    DN(___,0,0x000),
    DN(E_5,6,0x000),
    DN(___,0,0x000),
    DN(F_5,6,0x000),
    DN(___,0,0x000),
    DN(B_5,6,0x000),
    DN(___,0,0x000),
    DN(C_6,6,0x000),
    DN(___,0,0x000),
    DN(E_5,6,0x000),
    DN(___,0,0x000),
    DN(F_5,6,0x000),
    DN(___,0,0x000),
    DN(G_5,6,0x000),
    DN(___,0,0x000),
    DN(A_5,6,0x000),
    DN(___,0,0x000),
    DN(E_5,6,0x000),
    DN(___,0,0x000),
    DN(F_5,6,0x000),
    DN(___,0,0x000),
    DN(G_5,6,0x000),
    DN(___,0,0x000),
    DN(A_5,6,0x000),
    DN(___,0,0x000),
    DN(E_5,6,0x000),
    DN(___,0,0x000),
    DN(F_5,6,0x000),
    DN(___,0,0x000),
    DN(C_6,6,0x000),
    DN(___,0,0x000),
    DN(D_6,6,0x000),
    DN(___,0,0x000),
    DN(E_5,6,0x000),
    DN(___,0,0x000),
};
static const unsigned char P3[] = {
    DN(___,0,0x000),
    DN(___,0,0x000),
    DN(___,0,0x000),
    DN(___,0,0x000),
    DN(___,0,0x000),
    DN(___,0,0x000),
    DN(___,0,0x000),
    DN(___,0,0x000),
    DN(___,0,0x000),
    DN(___,0,0x000),
    DN(___,0,0x000),
    DN(___,0,0x000),
    DN(___,0,0x000),
    DN(___,0,0x000),
    DN(___,0,0x000),
    DN(___,0,0x000),
    DN(___,0,0x000),
    DN(___,0,0x000),
    DN(___,0,0x000),
    DN(___,0,0x000),
    DN(___,0,0x000),
    DN(___,0,0x000),
    DN(___,0,0x000),
    DN(___,0,0x000),
    DN(___,0,0x000),
    DN(___,0,0x000),
    DN(___,0,0x000),
    DN(___,0,0x000),
    DN(___,0,0x000),
    DN(___,0,0x000),
    DN(___,0,0x000),
    DN(___,0,0x000),
    DN(___,0,0x000),
    DN(___,0,0x000),
    DN(___,0,0x000),
    DN(___,0,0x000),
    DN(___,0,0x000),
    DN(___,0,0x000),
    DN(___,0,0x000),
    DN(___,0,0x000),
    DN(___,0,0x000),
    DN(___,0,0x000),
    DN(___,0,0x000),
    DN(___,0,0x000),
    DN(___,0,0x000),
    DN(___,0,0x000),
    DN(___,0,0x000),
    DN(___,0,0x000),
    DN(___,0,0x000),
    DN(___,0,0x000),
    DN(___,0,0x000),
    DN(___,0,0x000),
    DN(___,0,0x000),
    DN(___,0,0x000),
    DN(___,0,0x000),
    DN(___,0,0x000),
    DN(___,0,0x000),
    DN(___,0,0x000),
    DN(___,0,0x000),
    DN(___,0,0x000),
    DN(___,0,0x000),
    DN(___,0,0x000),
    DN(___,0,0x000),
    DN(___,0,0x000),
};
static const unsigned char P5[] = {
    DN(F_5,9,0x000),
    DN(___,0,0x000),
    DN(C_6,9,0x000),
    DN(___,0,0x000),
    DN(D_6,9,0x000),
    DN(___,0,0x000),
    DN(F_4,9,0x000),
    DN(E_4,9,0x000),
    DN(___,0,0x000),
    DN(A_4,9,0x000),
    DN(B_4,9,0x000),
    DN(___,0,0x000),
    DN(C_5,9,0x000),
    DN(___,0,0x000),
    DN(F_4,9,0x000),
    DN(___,0,0x000),
    DN(E_4,9,0x000),
    DN(___,0,0x000),
    DN(A_4,9,0x000),
    DN(___,0,0x000),
    DN(B_4,9,0x000),
    DN(___,0,0x000),
    DN(D_5,9,0x000),
    DN(___,0,0x000),
    DN(F_4,9,0x000),
    DN(___,0,0x000),
    DN(E_4,9,0x000),
    DN(___,0,0x000),
    DN(A_4,9,0x000),
    DN(___,0,0x000),
    DN(B_4,9,0x000),
    DN(___,0,0x000),
    DN(E_5,9,0x000),
    DN(___,0,0x000),
    DN(___,0,0x000),
    DN(___,0,0x000),
    DN(___,0,0x000),
    DN(___,0,0x000),
    DN(___,0,0x000),
    DN(___,0,0x000),
    DN(___,0,0xB01),
    DN(___,0,0x000),
    DN(___,0,0x000),
    DN(___,0,0x000),
    DN(___,0,0x000),
    DN(___,0,0x000),
    DN(___,0,0x000),
    DN(___,0,0x000),
    DN(___,0,0x000),
    DN(___,0,0x000),
    DN(___,0,0x000),
    DN(___,0,0x000),
    DN(___,0,0x000),
    DN(___,0,0x000),
    DN(___,0,0x000),
    DN(___,0,0x000),
    DN(___,0,0x000),
    DN(___,0,0x000),
    DN(___,0,0x000),
    DN(___,0,0x000),
    DN(___,0,0x000),
    DN(___,0,0x000),
    DN(___,0,0x000),
    DN(___,0,0x000),
};
static const unsigned char P6[] = {
    DN(F_5,6,0x000),
    DN(___,0,0x000),
    DN(C_6,6,0x000),
    DN(___,0,0x000),
    DN(D_6,6,0x000),
    DN(___,0,0x000),
    DN(F_4,6,0x000),
    DN(E_4,6,0x000),
    DN(___,0,0x000),
    DN(A_4,6,0x000),
    DN(B_4,6,0x000),
    DN(___,0,0x000),
    DN(C_5,6,0x000),
    DN(___,0,0x000),
    DN(F_4,6,0x000),
    DN(___,0,0x000),
    DN(E_4,6,0x000),
    DN(___,0,0x000),
    DN(A_4,6,0x000),
    DN(___,0,0x000),
    DN(B_4,6,0x000),
    DN(___,0,0x000),
    DN(D_5,6,0x000),
    DN(___,0,0x000),
    DN(F_4,6,0x000),
    DN(___,0,0x000),
    DN(E_4,6,0x000),
    DN(___,0,0x000),
    DN(A_4,6,0x000),
    DN(___,0,0x000),
    DN(B_4,6,0x000),
    DN(___,0,0x000),
    DN(E_5,6,0x000),
    DN(___,0,0x000),
    DN(___,0,0x000),
    DN(___,0,0x000),
    DN(___,0,0x000),
    DN(___,0,0x000),
    DN(___,0,0x000),
    DN(___,0,0x000),
    DN(___,0,0x000),
    DN(___,0,0x000),
    DN(___,0,0x000),
    DN(___,0,0x000),
    DN(___,0,0x000),
    DN(___,0,0x000),
    DN(___,0,0x000),
    DN(___,0,0x000),
    DN(___,0,0x000),
    DN(___,0,0x000),
    DN(___,0,0x000),
    DN(___,0,0x000),
    DN(___,0,0x000),
    DN(___,0,0x000),
    DN(___,0,0x000),
    DN(___,0,0x000),
    DN(___,0,0x000),
    DN(___,0,0x000),
    DN(___,0,0x000),
    DN(___,0,0x000),
    DN(___,0,0x000),
    DN(___,0,0x000),
    DN(___,0,0x000),
    DN(___,0,0x000),
};

static const unsigned char* const order1[] = {P1,P5};
static const unsigned char* const order2[] = {P2,P6};
static const unsigned char* const order3[] = {P3,P3};
static const unsigned char* const order4[] = {P3,P3};

static const hUGEDutyInstr_t duty_instruments[] = {
    {8,0,240,0,128},
    {8,64,240,0,128},
    {8,128,240,0,128},
    {8,192,240,0,128},
    {8,0,241,0,128},
    {8,64,241,0,128},
    {8,128,241,0,128},
    {8,192,241,0,128},
    {0,134,9,0,128},
    {8,128,240,0,128},
    {8,128,240,0,128},
    {8,128,240,0,128},
    {8,128,240,0,128},
    {8,128,240,0,128},
    {8,128,240,0,128},
};
static const hUGEWaveInstr_t wave_instruments[] = {
    {0,32,0,0,128},
    {0,32,1,0,128},
    {0,32,2,0,128},
    {0,32,3,0,128},
    {0,32,4,0,128},
    {0,32,5,0,128},
    {0,32,6,0,128},
    {0,32,7,0,128},
    {0,32,8,0,128},
    {0,32,9,0,128},
    {0,32,10,0,128},
    {0,32,11,0,128},
    {0,32,12,0,128},
    {0,32,13,0,128},
    {0,32,14,0,128},
};
static const hUGENoiseInstr_t noise_instruments[] = {
    {240,0,0,0,0},
    {240,0,0,0,0},
    {240,0,0,0,0},
    {240,0,0,0,0},
    {240,0,0,0,0},
    {240,0,0,0,0},
    {240,0,0,0,0},
    {240,0,0,0,0},
    {240,0,0,0,0},
    {240,0,0,0,0},
    {240,0,0,0,0},
    {240,0,0,0,0},
    {240,0,0,0,0},
    {240,0,0,0,0},
    {240,0,0,0,0},
};

static const unsigned char waves[] = {
    0,0,255,255,255,255,255,255,255,255,255,255,255,255,255,255,
    0,0,0,0,255,255,255,255,255,255,255,255,255,255,255,255,
    0,0,0,0,0,0,0,0,255,255,255,255,255,255,255,255,
    0,0,0,0,0,0,0,0,0,0,0,0,255,255,255,255,
    0,1,18,35,52,69,86,103,120,137,154,171,188,205,222,239,
    254,220,186,152,118,84,50,16,18,52,86,120,154,188,222,255,
    122,205,219,117,33,19,104,189,220,151,65,1,71,156,221,184,
    15,15,15,15,15,15,15,15,15,15,15,15,15,15,15,15,
    254,252,250,248,246,244,242,240,242,244,246,248,250,252,254,255,
    254,221,204,187,170,153,136,119,138,189,241,36,87,138,189,238,
    132,17,97,237,87,71,90,173,206,163,23,121,221,32,3,71,
    88,176,32,110,92,1,205,53,228,169,84,99,136,205,91,140,
    51,55,115,55,117,99,115,240,11,236,1,53,153,214,160,126,
    0,73,26,167,8,162,117,116,197,93,29,173,237,116,9,35,
    8,132,173,110,209,98,113,156,174,80,103,65,170,29,40,34,
    3,112,125,5,131,54,110,41,67,4,119,200,216,141,150,114,
};

const hUGESong_t cathedral_level = {10, &order_cnt, order1, order2, order3,order4, duty_instruments, wave_instruments, noise_instruments, NULL, waves};
